<svg xmlns="http://www.w3.org/2000/svg" viewBox="0 0 37.1 37.1">
    <defs>
        <style>.cls-1{fill:#cfcece;}.cls-2{fill:#fff;}</style>
    </defs>
    <g id="Layer_1" data-name="Layer 1">
        <rect class="cls-1" x="0.1" y="0.11" width="36.89" height="36.89"
              transform="translate(-0.11 36.99) rotate(-89.67)"/>
        <path class="cls-2"
              d="M24.68,13.49c0,.11,0,.21,0,.31a3,3,0,0,1,0,.31c0,.15,0,.3-.07.45a4.15,4.15,0,0,1-.11.48,5.76,5.76,0,0,1-.31.88.61.61,0,0,0-.05.12l-.22.41a.75.75,0,0,1-.07.12,6,6,0,0,1-1,1.28l-.12.11-.2.17-.14.11-.32.23,0,0-.44.27-.42.2h0a5.09,5.09,0,0,1-.88.31l-.19.05a5.75,5.75,0,0,1-.94.14l-.3,0h-.62a7.09,7.09,0,0,1-.94-.15L17,19.27a7.08,7.08,0,0,1-.88-.31l0,0c-.13-.05-.25-.12-.37-.18a4.94,4.94,0,0,1-.49-.3l0,0-.32-.23-.13-.11-.2-.18-.22-.21a6.3,6.3,0,0,1-.92-1.19.75.75,0,0,0-.07-.12L13.15,16a.61.61,0,0,0-.05-.12,6.07,6.07,0,0,1-.3-.88c0-.15-.08-.31-.11-.48L12.63,14c0-.1,0-.2,0-.31v-.31c0-.1,0-.2,0-.31a1.15,1.15,0,0,0,0-.19h0a.36.36,0,0,1,0-.11.5.5,0,0,1,0-.12c0-.11,0-.22,0-.33s.07-.33.11-.48a6.12,6.12,0,0,1,.32-.88l0-.06,0-.06c.07-.14.14-.28.22-.41a.75.75,0,0,1,.07-.12,5.57,5.57,0,0,1,1-1.28L14.62,9l.2-.18L15,8.67l.32-.22,0,0a6.53,6.53,0,0,1,.86-.48h0a6.09,6.09,0,0,1,.88-.31l.19,0a7.19,7.19,0,0,1,.93-.14h.63l.3,0a7.36,7.36,0,0,1,.94.15l.19,0a6.45,6.45,0,0,1,.87.32h0a6.42,6.42,0,0,1,.85.48l.05,0a3.55,3.55,0,0,1,.31.23l.14.11.2.18.12.1a6.17,6.17,0,0,1,1,1.3.75.75,0,0,0,.07.12l.21.41a.61.61,0,0,0,.05.12,7,7,0,0,1,.3.88,4.1,4.1,0,0,1,.1.48c0,.15.05.3.07.45a.76.76,0,0,0,0,.15.86.86,0,0,0,0,.16Z"/>
        <path class="cls-2" d="M12.63,12.92Zm-.11-.06h0l.09.05h0Z"/>
        <path class="cls-2" d="M12.52,12.86l.09.05-.07,0Z"/>
        <polygon class="cls-2" points="12.63 12.92 12.63 12.92 12.63 12.92 12.63 12.92 12.63 12.92"/>
        <path class="cls-2"
              d="M28.62,25l0,6.25c0,.13,0,.1-.17.1L8.68,31.22c-.12,0-.24,0-.24-.1l0-6.26c0-.1,0-.2,0-.3a6.12,6.12,0,0,1,1.62-3.84l.09-.09a6,6,0,0,1,1.61-1.18l.11-.05.51-.2.12,0A3.62,3.62,0,0,1,13,19a7.46,7.46,0,0,0,.61.53,8.12,8.12,0,0,0,1.76,1.07l.35.15a8.18,8.18,0,0,0,1.42.41,7.72,7.72,0,0,0,1.44.14,8.26,8.26,0,0,0,1.65-.18c.07,0,1-.24,1.27-.34.1,0,.21-.12.31-.17a4,4,0,0,0,1.39-.83h0c.05,0,.1,0,.14-.06a7.69,7.69,0,0,0,.83-.68,6,6,0,0,1,4.44,5.6Z"/>
        <path class="cls-2"
              d="M15.38,20.63a8.12,8.12,0,0,1-1.76-1.07,8.12,8.12,0,0,0,1.76,1.07l.35.15a8.18,8.18,0,0,0,1.42.41"/>
    </g>
</svg>
