<svg xmlns="http://www.w3.org/2000/svg" viewBox="0 0 16.07 15.1"><defs><style>.cls-1{fill:#666;stroke:#666;stroke-miterlimit:10;fill-rule:evenodd;}</style></defs><title>letteropened</title><g id="Слой_2" data-name="Слой 2"><g id="Слой_1-2" data-name="Слой 1"><path class="cls-1" d="M1,5,2.7,3.68V.5H13.24V3.7L15.07,5s.06,0,.1,0,.14,0,.21.09a.19.19,0,0,1,0,.1.39.39,0,0,1,.12.32V14a.62.62,0,0,1-.17.42.54.54,0,0,1-.43.17H1.1a.53.53,0,0,1-.42-.17A.59.59,0,0,1,.5,14V5.55a.47.47,0,0,1,.12-.33.2.2,0,0,1,.06-.09A.27.27,0,0,1,.92,5L1,5ZM3.2,3.29h0V7.21L6,9.89l2.07,2,4.67-4.58V1H3.2Zm4.85,9.29h0L8,12.52a.31.31,0,0,1-.12,0h0l-1.9-1.87-4.47,3.5H14.62L10.13,10.6,8.22,12.46l-.09,0ZM1,13.8H1l4.56-3.55L5.29,10,2.7,7.49V7.41L1,5.77Zm.31-8.41h0L2.7,6.7V4.31Zm9.17,4.84h0L15,13.8v-8Zm2.74-3.4h0l1.49-1.44L13.24,4.31Z"/></g></g></svg>