<svg xmlns="http://www.w3.org/2000/svg" viewBox="0 0 16.34 13.43"><defs><style>.cls-1{fill:#4d4d4d;stroke:#666;stroke-miterlimit:10;fill-rule:evenodd;}</style></defs><title>letterclosed</title><g id="Слой_2" data-name="Слой 2"><g id="Слой_1-2" data-name="Слой 1"><path class="cls-1" d="M1.1.5H15.25a.44.44,0,0,1,.38.22l.06.08a.76.76,0,0,1,.15.5V12.14a.73.73,0,0,1-.19.53.46.46,0,0,1-.4.26H1.1a.58.58,0,0,1-.44-.26.72.72,0,0,1-.16-.53V1.3A.83.83,0,0,1,.66.74.61.61,0,0,1,1.1.5Zm2.67,9.65h0c-.11.15-.26.1-.34,0s-.08-.35,0-.44L6.48,6.54,1,1.54v10.6a.13.13,0,0,0,0,.1H15.29V1.57L9.74,6.63l2.95,3a.36.36,0,0,1,0,.44c-.08.14-.24.19-.35,0L9.29,7.05l-1,.89a.23.23,0,0,1-.14,0,.33.33,0,0,1-.17,0L6.94,7Zm5.36-3.8h0l0,0,5.61-5.11H1.55L8.16,7.24Z"/></g></g></svg>