<svg xmlns="http://www.w3.org/2000/svg" viewBox="0 0 14.58 14.69"><defs><style>.cls-1,.cls-4{fill:#666;}.cls-1,.cls-3{stroke:#666;stroke-miterlimit:10;}.cls-2{fill:#fff;}.cls-3{fill:none;}</style></defs><title>printer</title><g id="Слой_2" data-name="Слой 2"><g id="Слой_1-2" data-name="Слой 1"><path class="cls-1" d="M10.86,12.18v.34H13.7a.38.38,0,0,0,.38-.38V3.84a.38.38,0,0,0-.38-.38H11.55v-2a.19.19,0,0,0-.19-.19h-.5V4.13H3.72V1.29H3.21A.19.19,0,0,0,3,1.48v2H.88a.38.38,0,0,0-.38.38v8.3a.38.38,0,0,0,.38.38H3.72v-.34H3V9.59h8.52v2.59Zm2.33-2.74a.38.38,0,1,1-.38.38A.38.38,0,0,1,13.19,9.44Zm0,1.06a.38.38,0,1,1-.38.38A.38.38,0,0,1,13.19,10.5Z"/><rect class="cls-2" x="10.86" y="9.59" width="0.69" height="2.6"/><rect class="cls-2" x="3.03" y="9.59" width="0.69" height="2.6"/><path class="cls-2" d="M3.72,12.52v1.67h7.14V9.59H3.72v2.93Zm.86-2H9.94v.32H4.58Zm0,1H9.94v.33H4.58Zm0,1H9.94v.32H4.58Z"/><polygon class="cls-3" points="3.72 14.19 10.86 14.19 10.86 10.49 10.86 9.45 3.72 9.45 3.72 10.49 3.72 14.19"/><polygon class="cls-3" points="3.72 4.13 10.86 4.13 10.86 1.29 10.86 0.5 3.72 0.5 3.72 1.29 3.72 4.13"/><path class="cls-2" d="M12.27,9.13a.61.61,0,0,0,.61.61.61.61,0,1,0,0-1.22A.61.61,0,0,0,12.27,9.13Z"/><rect class="cls-4" x="4.58" y="10.49" width="5.36" height="0.33"/><rect class="cls-4" x="4.58" y="11.52" width="5.36" height="0.33"/><rect class="cls-4" x="4.58" y="12.56" width="5.36" height="0.33"/></g></g></svg>