<svg xmlns="http://www.w3.org/2000/svg" viewBox="0 0 10.14 13.52"><defs><style>.cls-1{fill:#666;}</style></defs><title>trash</title><g id="Слой_2" data-name="Слой 2"><g id="Layer_1" data-name="Layer 1"><path class="cls-1" d="M8.87,1.69H1.27A1.27,1.27,0,0,0,0,3v.42H10.14V3A1.27,1.27,0,0,0,8.87,1.69ZM6.66.85l.19,1.33H3.3L3.48.85H6.66M6.76,0H3.38a.75.75,0,0,0-.72.63L2.41,2.4A.53.53,0,0,0,3,3H7.18a.53.53,0,0,0,.55-.62L7.48.63A.75.75,0,0,0,6.76,0ZM9.08,4.23h-8a.75.75,0,0,0-.77.84L1,12.68a1,1,0,0,0,.92.84H8.24a1,1,0,0,0,.92-.84l.69-7.61A.75.75,0,0,0,9.08,4.23Zm-5.7,7.6H2.11L1.69,5.92H3.38Zm2.54,0H4.23V5.92H5.92Zm2.11,0H6.76V5.92H8.45Z"/></g></g></svg>