<svg xmlns="http://www.w3.org/2000/svg" viewBox="0 0 18.4 20.59"><defs><style>.cls-1{fill:#fff;}</style></defs><title>briefcase</title><g id="Слой_2" data-name="Слой 2"><g id="Layer_1" data-name="Layer 1"><path class="cls-1" d="M15.48,10.49v1.23H14.25V10.49H4.14v1.23H2.92V10.49H0v7.43c0,1.48.85,2.67,1.9,2.67H16.5c1.05,0,1.9-1.19,1.9-2.67V10.49Z"/><path class="cls-1" d="M16.5,3.24H12.83V.83c0-.46-.27-.83-.6-.83H6.16c-.32,0-.59.37-.59.83V3.24H1.9C.85,3.24,0,4.43,0,5.9V9.64H2.92v-1H4.14v1H14.25v-1h1.23v1H18.4V5.9C18.4,4.43,17.55,3.24,16.5,3.24Zm-4.86,0H6.76V1.67h4.88Z"/></g></g></svg>