<svg xmlns="http://www.w3.org/2000/svg" viewBox="0 0 23.2 25.37"><defs><style>.cls-1{fill:#4d4d4d;}.cls-2{fill:#f2f2f2;stroke:#e6e6e6;stroke-miterlimit:10;}</style></defs><title>calendar2</title><g id="Слой_2" data-name="Слой 2"><g id="Layer_1" data-name="Layer 1"><path class="cls-1" d="M23.2,4.44v18c0,1.56-1,3-2.15,3H2.16C1,25.37,0,24,0,22.41v-18A2.41,2.41,0,0,1,2.16,1.76H4.23V3.39c0,1.11.66,2,1.51,2s1.51-.92,1.51-2V1.76h8.69V3.39c0,1.11.66,2,1.51,2S19,4.5,19,3.39V1.76h2.09C22.24,1.76,23.2,2.88,23.2,4.44Z"/><rect class="cls-1" x="1.81" y="8.04" width="19.59" height="14.67"/><rect class="cls-2" x="3.17" y="10.13" width="2.9" height="3.81"/><rect class="cls-2" x="7.83" y="10.13" width="2.9" height="3.81"/><rect class="cls-2" x="12.48" y="10.13" width="2.9" height="3.81"/><rect class="cls-2" x="17.13" y="10.13" width="2.9" height="3.81"/><rect class="cls-2" x="3.17" y="16.47" width="2.9" height="3.81"/><rect class="cls-2" x="7.83" y="16.47" width="2.9" height="3.81"/><rect class="cls-2" x="12.48" y="16.47" width="2.9" height="3.81"/><rect class="cls-2" x="17.13" y="16.47" width="2.9" height="3.81"/><rect class="cls-1" x="4.87" width="1.75" height="4.46" rx="0.76"/><rect class="cls-1" x="16.55" width="1.75" height="4.46" rx="0.76"/></g></g></svg>