<svg xmlns="http://www.w3.org/2000/svg" viewBox="0 0 55.12 55.12"><defs><style>.cls-1{fill:#f3b321;}.cls-2{fill:#d7d7d7;}.cls-3{fill:#9b9a9a;}.cls-4{opacity:0.5;}.cls-5{opacity:0.2;}.cls-6{fill:#fff;}.cls-7{opacity:0.8;}.cls-8{opacity:0.4;}</style></defs><title>circles</title><g id="Слой_2" data-name="Слой 2"><g id="Layer_1" data-name="Layer 1"><path class="cls-1" d="M27.34,18.37A18.38,18.38,0,1,0,45.72,36.75,18.37,18.37,0,0,0,27.34,18.37Z"/><path class="cls-2" d="M36.75,0A18.38,18.38,0,1,0,55.12,18.37,18.38,18.38,0,0,0,36.75,0Z"/><path class="cls-3" d="M18.38,0A18.38,18.38,0,1,0,36.75,18.37,18.38,18.38,0,0,0,18.38,0Z"/><g class="cls-4"><path class="cls-1" d="M27.37,18.37a18.28,18.28,0,0,0-8.83,2.26,18.38,18.38,0,0,0,9,13.65,18.36,18.36,0,0,0,9-13.41A18.2,18.2,0,0,0,27.37,18.37Z"/></g><g class="cls-5"><path class="cls-6" d="M27.58,2.46A18.36,18.36,0,0,0,18.4,18.37a18.66,18.66,0,0,0,.14,2.26,18.33,18.33,0,0,1,18.06.24,18.74,18.74,0,0,0,.17-2.5A18.37,18.37,0,0,0,27.58,2.46Z"/></g><g class="cls-7"><path class="cls-1" d="M18.54,20.63A18.38,18.38,0,0,0,9.16,34.26a18.34,18.34,0,0,0,18.42,0A18.36,18.36,0,0,1,18.54,20.63Z"/></g><g class="cls-8"><path class="cls-1" d="M36.6,20.87a18.36,18.36,0,0,1-9,13.41,18.35,18.35,0,0,0,18,.21A18.4,18.4,0,0,0,36.6,20.87Z"/></g></g></g></svg>