<svg xmlns="http://www.w3.org/2000/svg" viewBox="0 0 23.17 25.34"><defs><style>.cls-1{fill:#fff;}.cls-2{fill:#565d63;}</style></defs><title>date</title><g id="Слой_2" data-name="Слой 2"><g id="Layer_1" data-name="Layer 1"><path class="cls-1" d="M23.17,4.44V22.38c0,1.56-1,3-2.15,3H2.15C1,25.34,0,23.94,0,22.38V4.44A2.41,2.41,0,0,1,2.15,1.76H4.23V3.38c0,1.12.66,2,1.5,2s1.51-.91,1.51-2V1.76h8.68V3.38c0,1.12.66,2,1.51,2s1.51-.91,1.51-2V1.76H21C22.21,1.76,23.17,2.88,23.17,4.44Z"/><rect class="cls-2" x="1.81" y="8.03" width="19.56" height="14.65"/><rect class="cls-1" x="3.17" y="10.12" width="2.9" height="3.8"/><rect class="cls-1" x="7.82" y="10.12" width="2.9" height="3.8"/><rect class="cls-1" x="12.46" y="10.12" width="2.9" height="3.8"/><rect class="cls-1" x="17.11" y="10.12" width="2.9" height="3.8"/><rect class="cls-1" x="3.17" y="16.45" width="2.9" height="3.8"/><rect class="cls-1" x="7.82" y="16.45" width="2.9" height="3.8"/><rect class="cls-1" x="12.46" y="16.45" width="2.9" height="3.8"/><rect class="cls-1" x="17.11" y="16.45" width="2.9" height="3.8"/><rect class="cls-1" x="4.86" width="1.75" height="4.45" rx="0.62"/><rect class="cls-1" x="16.53" width="1.75" height="4.45" rx="0.62"/></g></g></svg>