<svg xmlns="http://www.w3.org/2000/svg" viewBox="0 0 24 28.11"><defs><style>.cls-1,.cls-2{fill:#4d4d4d;}.cls-2,.cls-3{stroke:#f2f2f2;stroke-miterlimit:10;}.cls-3{fill:none;}</style></defs><title>dialog</title><g id="Слой_2" data-name="Слой 2"><g id="Layer_1" data-name="Layer 1"><path class="cls-1" d="M3.42,0h10A3.51,3.51,0,0,1,17,3.39V9.62A3.51,3.51,0,0,1,13.39,13H13v4.16L8.08,13H3.41A3.4,3.4,0,0,1,0,9.61V3.38A3.4,3.4,0,0,1,3.42,0Z"/><path class="cls-2" d="M7.44,4.5H19A4.46,4.46,0,0,1,23.5,8.93v8.15A4.47,4.47,0,0,1,19,21.5H18.5v5.44L12.83,21.5H7.44A4.2,4.2,0,0,1,3.5,17.07V8.92A4.2,4.2,0,0,1,7.44,4.5Z"/><line class="cls-3" x1="6" y1="11.5" x2="20" y2="11.51"/><line class="cls-3" x1="6" y1="15.5" x2="20" y2="15.51"/></g></g></svg>