<svg xmlns="http://www.w3.org/2000/svg" viewBox="0 0 23.62 21.55"><defs><style>.cls-1{fill:#fff;}</style></defs><title>house</title><g id="Слой_2" data-name="Слой 2"><g id="Layer_1" data-name="Layer 1"><path class="cls-1" d="M0,10.78a7.54,7.54,0,0,1,.58-.67L5,5.86,8.42,2.62c.75-.71,1.5-1.44,2.26-2.15A1.59,1.59,0,0,1,13,.48c1.15,1.08,2.29,2.18,3.43,3.28l.1.08c0-.11,0-.18,0-.25V.76c0-.54.15-.71.61-.71h2.54c.44,0,.59.18.59.68,0,2.16,0,4.31,0,6.47a.48.48,0,0,0,.17.4c1,.92,1.93,1.83,2.89,2.76a2.73,2.73,0,0,1,.32.42v.3l-.93,1.3c-.26.37-.5.41-.83.09C21,11.64,20.1,10.79,19.22,10L16.91,7.74,14.52,5.46,12,3c-.1-.1-.17-.1-.28,0L9.32,5.26,7,7.5,4.62,9.75,2,12.26c-.1.1-.2.2-.31.29A.41.41,0,0,1,1,12.47c-.34-.45-.67-.92-1-1.39Z"/><path class="cls-1" d="M13.68,21.53V15.11H10.14c-.17,0-.21.05-.21.25v6.21H4.43c-.68,0-1-.43-1.06-1.21,0-2.58,0-5.17,0-7.76a.51.51,0,0,1,.19-.43l3.9-3.68,3.43-3.24.92-.87,1.36,1.28,3.94,3.72,3,2.86a.44.44,0,0,1,.11.28c0,2.65,0,5.3,0,8a1,1,0,0,1-.94,1.09c-1.83,0-3.67,0-5.51,0Z"/></g></g></svg>