<svg xmlns="http://www.w3.org/2000/svg" viewBox="0 0 13.94 12.15"><defs><style>.cls-1{fill:#999c9c;}</style></defs><title>magnifying</title><g id="Слой_2" data-name="Слой 2"><g id="Layer_1" data-name="Layer 1"><path class="cls-1" d="M9.48,4.35A4.56,4.56,0,0,1,4.74,8.71,4.56,4.56,0,0,1,0,4.35,4.56,4.56,0,0,1,4.74,0,4.56,4.56,0,0,1,9.48,4.35Zm-1.29,0A3.32,3.32,0,0,0,4.74,1.19,3.31,3.31,0,0,0,1.3,4.35,3.31,3.31,0,0,0,4.74,7.51,3.31,3.31,0,0,0,8.19,4.35Zm4.55,7.8L13.94,11,7.82,6.42,7,7.12Z"/></g></g></svg>