<svg xmlns="http://www.w3.org/2000/svg" viewBox="0 0 21.86 21.28"><defs><style>.cls-1{fill:#fff;}</style></defs><title>mediator</title><g id="Слой_2" data-name="Слой 2"><g id="Layer_1" data-name="Layer 1"><path class="cls-1" d="M13.49,2.44a.49.49,0,0,1,0,.12.57.57,0,0,1,0,.13,1.1,1.1,0,0,1,0,.18c0,.06,0,.13,0,.19s-.08.24-.13.36l0,.05a1.29,1.29,0,0,1-.09.16l0,.05a2.66,2.66,0,0,1-.42.52l0,0-.09.08,0,0-.13.09,0,0-.18.1-.16.09h0a2.6,2.6,0,0,1-.36.13l-.08,0a2.2,2.2,0,0,1-.37.06h-.38a2.5,2.5,0,0,1-.38-.06l-.07,0a2.6,2.6,0,0,1-.36-.13h0l-.15-.08L9.7,4.47l0,0-.13-.09-.05,0-.09-.08a.3.3,0,0,1-.08-.08A2.23,2.23,0,0,1,9,3.68l0-.05-.08-.16,0-.05c-.05-.12-.09-.24-.13-.36s0-.13,0-.19l0-.18V2.56a.49.49,0,0,1,0-.12s0-.09,0-.13,0-.05,0-.07h0a.43.43,0,0,0,0-.05v0s0-.09,0-.13,0-.13,0-.2a3.62,3.62,0,0,1,.13-.35V1.41l.08-.17,0-.05A3,3,0,0,1,9.37.67l0,0L9.5.56a.1.1,0,0,1,.05,0l.13-.1h0A2.27,2.27,0,0,1,10,.22h0a2.53,2.53,0,0,1,.36-.12l.07,0A2.5,2.5,0,0,1,10.86,0h.38a2.2,2.2,0,0,1,.37.06l.08,0a2.53,2.53,0,0,1,.36.12h0a2.27,2.27,0,0,1,.34.19h0l.13.1a.1.1,0,0,1,0,0l.09.07,0,0a3,3,0,0,1,.42.52l0,.05a1.4,1.4,0,0,1,.09.17l0,.05a3.62,3.62,0,0,1,.13.35c0,.07,0,.13,0,.2a1.1,1.1,0,0,1,0,.18v.12A.57.57,0,0,1,13.49,2.44Z"/><path class="cls-1" d="M8.62,2.23h0Zm0,0h0Z"/><path class="cls-1" d="M8.58,2.21l0,0h0Z"/><polygon class="cls-1" points="8.62 2.23 8.62 2.24 8.62 2.24 8.62 2.23 8.62 2.23"/><path class="cls-1" d="M15.08,7.21V9.73s0,.06-.05.06h-8c-.05,0-.1,0-.1-.06V7.09a2.48,2.48,0,0,1,.65-1.56l0,0A2.33,2.33,0,0,1,8.3,5l0,0a1.21,1.21,0,0,1,.2-.09l0,0,.19,0L9,5.06a3.16,3.16,0,0,0,.71.42l.14.06a3,3,0,0,0,.57.16,3,3,0,0,0,1.25,0l.08,0h.12a.91.91,0,0,0,.31-.12.54.54,0,0,0,.13-.07,3,3,0,0,0,.56-.34h0l.06,0,.33-.27a2.37,2.37,0,0,1,1.79,2.24S15.08,7.17,15.08,7.21Z"/><path class="cls-1" d="M6.53,13.94v.12s0,.08,0,.12l0,.19a1.29,1.29,0,0,1,0,.19,2.06,2.06,0,0,1-.12.35l0,.05a.89.89,0,0,1-.08.17l0,0a2.29,2.29,0,0,1-.41.52l0,0-.08.07-.06,0L5.46,16h0l-.18.11-.17.09h0l-.35.13-.08,0a2.32,2.32,0,0,1-.38.06H3.91a2.32,2.32,0,0,1-.38-.06l-.08,0-.35-.13h0l-.15-.08L2.74,16h0l-.13-.09,0,0a.27.27,0,0,1-.08-.07l-.09-.08A2.46,2.46,0,0,1,2,15.18l0,0L1.88,15l0-.05a2.06,2.06,0,0,1-.12-.35c0-.06,0-.13-.05-.19a1.11,1.11,0,0,1,0-.19.49.49,0,0,1,0-.12v-.12a.56.56,0,0,1,0-.13v-.08h0v-.09a.68.68,0,0,0,0-.14c0-.06,0-.13.05-.19A2.06,2.06,0,0,1,1.86,13v-.05L2,12.74l0-.05a2.29,2.29,0,0,1,.41-.52l0,0a.27.27,0,0,1,.08-.07l0-.05.13-.09h0a2.43,2.43,0,0,1,.35-.2h0l.35-.13.08,0a2.32,2.32,0,0,1,.38-.06h.37a2.32,2.32,0,0,1,.38.06l.08,0,.35.13h0a2.43,2.43,0,0,1,.35.2h0l.13.09.06.05.08.07,0,0a2.29,2.29,0,0,1,.41.52l0,.05a.89.89,0,0,1,.08.17l0,.05a2.06,2.06,0,0,1,.12.35,1.29,1.29,0,0,1,0,.19l0,.19v.25Z"/><path class="cls-1" d="M1.66,13.73Zm0,0h0l0,0h0Z"/><path class="cls-1" d="M1.62,13.71l0,0,0,0Z"/><polygon class="cls-1" points="1.67 13.73 1.67 13.73 1.67 13.73 1.66 13.73 1.67 13.73"/><path class="cls-1" d="M8.17,18.71v2.52c0,.05-.05.05-.1.05h-8s-.11,0-.11-.05V18.71c0-.05,0-.09,0-.13A2.45,2.45,0,0,1,.66,17l0,0a2.55,2.55,0,0,1,.65-.48l0,0,.2-.08,0,0,.19-.05a2.52,2.52,0,0,0,.25.21,3.06,3.06,0,0,0,.71.43l.15.06a2.67,2.67,0,0,0,.57.16,2.78,2.78,0,0,0,.58.06,3.51,3.51,0,0,0,.66-.07l.09,0H5a1,1,0,0,0,.31-.12L5.39,17A2.33,2.33,0,0,0,6,16.63H6l.06,0,.33-.28a2.42,2.42,0,0,1,1.82,2.25S8.17,18.66,8.17,18.71Z"/><path class="cls-1" d="M20.25,13.89a.53.53,0,0,1,0,.13.49.49,0,0,1,0,.12,1.1,1.1,0,0,1,0,.18c0,.07,0,.13,0,.2a3.62,3.62,0,0,1-.13.35l0,.05a1.4,1.4,0,0,1-.09.17l0,.05a3,3,0,0,1-.42.52l0,0-.09.07s0,0-.05.05l-.13.09h0L19,16l-.17.08h0l-.36.13h-.08a2.2,2.2,0,0,1-.37.06h-.38a2.2,2.2,0,0,1-.37-.06h-.08l-.36-.13h0L16.65,16l-.19-.12h0l-.13-.09s0,0,0-.05l-.09-.07a.6.6,0,0,1-.08-.08,2.86,2.86,0,0,1-.38-.48l0-.05a1.4,1.4,0,0,1-.09-.17l0-.05a3.62,3.62,0,0,1-.13-.35c0-.07,0-.13,0-.2a1.1,1.1,0,0,1,0-.18.49.49,0,0,1,0-.12.53.53,0,0,1,0-.13s0-.08,0-.12,0,0,0-.08h0s0,0,0,0v0l0-.14a1.29,1.29,0,0,1,0-.19,2.6,2.6,0,0,1,.13-.36v0a.91.91,0,0,1,.09-.17l0,0a2.66,2.66,0,0,1,.42-.52l0,0,.09-.07s0,0,0,0l.13-.09h0a2.33,2.33,0,0,1,.34-.2h0l.36-.13.08,0a2.2,2.2,0,0,1,.37-.06H18a2.2,2.2,0,0,1,.37.06l.08,0,.36.13h0a2.33,2.33,0,0,1,.34.2h0l.13.09s0,0,.05,0l.09.07,0,0a2.66,2.66,0,0,1,.42.52l0,0a.91.91,0,0,1,.09.17l0,0c.05.12.09.24.13.36s0,.13,0,.19a1.1,1.1,0,0,1,0,.18v.13A.49.49,0,0,1,20.25,13.89Z"/><path class="cls-1" d="M15.38,13.69Zm0,0h0l0,0h0Z"/><path class="cls-1" d="M15.34,13.67l0,0,0,0Z"/><polygon class="cls-1" points="15.38 13.69 15.38 13.69 15.38 13.69 15.38 13.69 15.38 13.69"/><path class="cls-1" d="M21.85,18.66v2.53s0,.09-.06.09h-8a.08.08,0,0,1-.08-.09V18.66s0-.08,0-.12A2.5,2.5,0,0,1,14.38,17s0,0,0,0a2.34,2.34,0,0,1,.64-.48l0,0,.2-.08,0,0,.19-.05.25.21a3.45,3.45,0,0,0,.71.43l.14.06a3.83,3.83,0,0,0,.58.16,2.78,2.78,0,0,0,.58.05,3,3,0,0,0,.66-.08s.06,0,.08,0h.12A1,1,0,0,0,19,17l.12,0a2.87,2.87,0,0,0,.56-.32h0s0,0,.06,0l.33-.29a2.39,2.39,0,0,1,1.8,2.24S21.85,18.62,21.85,18.66Z"/><rect class="cls-1" x="10.45" y="10.4" width="0.96" height="4.19" rx="0.31"/><rect class="cls-1" x="11.71" y="13.01" width="0.96" height="4.19" rx="0.31" transform="translate(-7.22 15.23) rotate(-51.46)"/><rect class="cls-1" x="9.01" y="13.01" width="0.96" height="4.19" rx="0.31" transform="translate(15.39 -1.73) rotate(51.46)"/></g></g></svg>