<svg xmlns="http://www.w3.org/2000/svg" viewBox="0 0 23.74 21.69"><defs><style>.cls-1{fill:#4d4d4d;}</style></defs><title>notebook2</title><g id="Слой_2" data-name="Слой 2"><g id="Layer_1" data-name="Layer 1"><g id="Layer_1-2" data-name="Layer 1-2"><rect class="cls-1" y="13.98" width="3.55" height="1.61" rx="0.62"/><rect class="cls-1" y="17.92" width="3.55" height="1.61" rx="0.62"/><rect class="cls-1" y="10.03" width="3.55" height="1.61" rx="0.62"/><rect class="cls-1" y="6.08" width="3.55" height="1.61" rx="0.62"/><rect class="cls-1" y="2.16" width="3.55" height="1.61" rx="0.62"/><path class="cls-1" d="M21.54,21.69H3.34a2.19,2.19,0,0,1-2.2-2.2V2.2A2.19,2.19,0,0,1,3.34,0h18.2a2.2,2.2,0,0,1,2.2,2.2V19.49A2.2,2.2,0,0,1,21.54,21.69ZM1.31,16.17s3.32.48,3.25-1.38S1.31,13.4,1.31,13.4Zm0,3.94s3.32.48,3.25-1.38-3.25-1.39-3.25-1.39Zm0-7.88s3.32.48,3.25-1.39S1.31,9.46,1.31,9.46Zm0-3.94s3.32.48,3.25-1.39S1.31,5.52,1.31,5.52Zm0-3.95S4.63,4.83,4.56,3,1.31,1.58,1.31,1.58ZM19.77,14H7.64A.62.62,0,0,0,7,14.6V15a.62.62,0,0,0,.62.62H19.77a.62.62,0,0,0,.62-.62V14.6A.62.62,0,0,0,19.77,14Zm0,3.94H7.64a.63.63,0,0,0-.62.62v.37a.62.62,0,0,0,.62.62H19.77a.62.62,0,0,0,.62-.62v-.37a.63.63,0,0,0-.62-.62Zm0-7.89H7.64a.62.62,0,0,0-.62.62V11a.63.63,0,0,0,.62.62H19.77a.63.63,0,0,0,.62-.62v-.37a.62.62,0,0,0-.62-.62Zm0-3.95H7.64A.62.62,0,0,0,7,6.7v.36a.62.62,0,0,0,.62.62H19.77a.62.62,0,0,0,.62-.62V6.7a.62.62,0,0,0-.62-.62Zm0-3.92H7.64A.62.62,0,0,0,7,2.78v.36a.62.62,0,0,0,.62.62H19.77a.62.62,0,0,0,.62-.62V2.78a.62.62,0,0,0-.62-.62Z"/></g></g></g></svg>