<svg xmlns="http://www.w3.org/2000/svg" viewBox="0 0 30.22 27.07"><defs><style>.cls-1{fill:#4d4d4d;}</style></defs><title>support2</title><g id="Слой_2" data-name="Слой 2"><g id="Layer_1" data-name="Layer 1"><path class="cls-1" d="M6.61,10.92V20H8.07a1,1,0,0,0,1-1V12a1,1,0,0,0-1-1Z"/><path class="cls-1" d="M23.62,11v-.07H22.16a1,1,0,0,0-1,1V19a1,1,0,0,0,1,1h1.46Z"/><path class="cls-1" d="M27.36,11.25a12.29,12.29,0,0,0-24.5,0,4.54,4.54,0,0,0-1.1,7.81v3.07a3.19,3.19,0,0,0,3.18,3.18h7.58a2.79,2.79,0,1,0,0-2H4.94a1.14,1.14,0,0,1-1.13-1.13V20a4.52,4.52,0,0,0,.74.06H5v-9.1H5a10.11,10.11,0,0,1,2.14-5h16a10.19,10.19,0,0,1,2.13,5h0s0,.05,0,.07v9h.42a4.55,4.55,0,0,0,1.68-8.77Z"/></g></g></svg>