<svg xmlns="http://www.w3.org/2000/svg" viewBox="0 0 24.6 22.03"><defs><style>.cls-1{fill:#fff;}</style></defs><title>support</title><g id="Слой_2" data-name="Слой 2"><g id="Layer_1" data-name="Layer 1"><path class="cls-1" d="M5.38,8.89v7.4H6.57a.83.83,0,0,0,.83-.83V9.72a.83.83,0,0,0-.83-.83Z"/><path class="cls-1" d="M19.22,8.94v0H18a.83.83,0,0,0-.83.83v5.74a.83.83,0,0,0,.83.83h1.19Z"/><path class="cls-1" d="M22.27,9.15a10,10,0,0,0-19.94,0A3.73,3.73,0,0,0,0,12.59a3.68,3.68,0,0,0,1.43,2.92V18A2.59,2.59,0,0,0,4,20.6h6.17a2.28,2.28,0,1,0,0-1.67H4A.92.92,0,0,1,3.1,18V16.24a3,3,0,0,0,.6.05H4V8.94a.09.09,0,0,1,0,0H4A8.32,8.32,0,0,1,5.77,4.82H18.82a8.24,8.24,0,0,1,1.74,4.07h0v7.4h.35a3.7,3.7,0,0,0,1.37-7.14Z"/></g></g></svg>