<?xml version="1.0" encoding="UTF-8"?>
<!DOCTYPE svg PUBLIC "-//W3C//DTD SVG 1.1//EN" "http://www.w3.org/Graphics/SVG/1.1/DTD/svg11.dtd">
<!-- Creator: CorelDRAW 2018 -->
<svg xmlns="http://www.w3.org/2000/svg" xml:space="preserve" width="2964px" height="2978px" version="1.1" style="shape-rendering:geometricPrecision; text-rendering:geometricPrecision; image-rendering:optimizeQuality; fill-rule:evenodd; clip-rule:evenodd"
viewBox="0 0 14405.25 14471.72"
 xmlns:xlink="http://www.w3.org/1999/xlink">
 <defs>
  <style type="text/css">
   <![CDATA[
    .fil0 {fill:white}
   ]]>
  </style>
 </defs>
 <g id="Слой_x0020_1">
  <metadata id="CorelCorpID_0Corel-Layer"/>
  <g id="_962365952">
   <g>
    <g>
     <path class="fil0" d="M6505.46 14471.72c3592.87,0 6505.45,-2912.58 6505.45,-6505.44 0,-1105.48 -274.88,-2145.69 -760.82,-3056.81 -53.15,7.59 -107.82,10.63 -160.97,10.63 -30.37,0 -62.26,-1.53 -94.14,-3.04l-827.6 -63.78 -595.29 595.27c454.05,731.94 716.77,1594.47 716.77,2517.73 0,2640.74 -2141.15,4781.9 -4781.91,4781.9 -2640.73,0 -4783.41,-2141.16 -4783.41,-4781.9 0,-2640.73 2141.15,-4781.88 4781.89,-4781.88 924.81,0 1787.33,262.71 2517.73,716.75l539.08 -539.08 -72.87 -949.09c-6.07,-75.93 -4.57,-151.85 3.03,-226.26 -894.43,-463.16 -1910.32,-725.87 -2988.48,-725.87 -3591.36,0 -6503.92,2912.57 -6503.92,6505.42 0,3592.86 2912.58,6505.45 6505.46,6505.45z"/>
     <path class="fil0" d="M6505.46 6285.25c42.51,0 85.04,1.54 127.55,4.56l1201.16 -1201.17 25.8 -25.81c-411.52,-192.86 -870.11,-300.68 -1354.53,-300.68 -1769.11,0 -3202.61,1433.51 -3202.61,3202.61 0,1769.1 1433.51,3204.13 3202.61,3204.13 1769.1,0 3202.62,-1433.51 3202.62,-3202.61 0,-484.42 -107.85,-943.01 -300.69,-1354.54l-25.8 25.82 -1201.2 1201.15c3.06,42.53 4.57,85.07 4.57,127.56 0,927.82 -751.68,1681.04 -1681.02,1681.04 -929.35,0 -1679.53,-753.23 -1679.53,-1681.04 0.04,-927.83 753.24,-1681.02 1681.07,-1681.02z"/>
     <path class="fil0" d="M13209.83 2165.44l385.71 -385.71c176.15,-176.15 176.15,-460.12 0,-636.27l-267.3 -268.78c-88.06,-88.07 -203.45,-132.11 -317.34,-132.11 -113.9,0 -230.84,44.04 -317.38,132.11l-441.9 441.9 -91.11 -1176.87c-6.07,-86.56 -77.48,-139.71 -151.85,-139.71 -37.97,0 -75.93,13.67 -106.3,44.04l-1738.74 1738.73c-156.42,156.41 -236.92,373.57 -220.19,595.27l4.54 68.34 83.52 1088.79 -628.68 628.68 -1131.32 1131.32 -25.8 25.82 -1094.87 1094.88 -485.93 485.93c-63.78,63.77 -103.26,148.82 -109.33,238.4l-30.38 381.17c-18.22,221.7 157.93,410.01 378.11,410.01 6.06,0 12.15,0 19.75,0l402.41 -19.76c94.14,-4.57 183.75,-44.04 249.05,-110.87l481.39 -481.37 1094.87 -1094.87 25.83 -25.82 1131.32 -1131.32 683.35 -683.34 993.1 75.92 44.03 3.04c19.76,1.52 39.48,1.52 57.72,1.52 200.44,0 393.31,-78.96 537.57,-221.71l1737.19 -1737.2c91.11,-91.12 33.42,-249.05 -95.66,-258.16l-1055.38 -82z"/>
    </g>
   </g>
  </g>
 </g>
</svg>
