<svg xmlns="http://www.w3.org/2000/svg" viewBox="0 0 27.93 33.01"><defs><style>.cls-1{fill:#cfcece;}</style></defs><title>userlogo</title><g id="Слой_2" data-name="Слой 2"><g id="Layer_1" data-name="Layer 1"><path class="cls-1" d="M22.38,8.35c0,.15,0,.29,0,.43l0,.43a6.17,6.17,0,0,1-.09.62c0,.23-.09.45-.15.67a8.23,8.23,0,0,1-.42,1.21l-.08.17c-.09.19-.19.38-.29.57l-.1.17a8.68,8.68,0,0,1-1.42,1.78l-.16.15-.28.24-.19.15-.44.32-.06,0c-.2.14-.4.26-.61.38s-.38.2-.58.29h0a7.25,7.25,0,0,1-1.21.43l-.27.07a7.88,7.88,0,0,1-1.29.2l-.43,0h-.44l-.42,0a7.83,7.83,0,0,1-1.3-.2l-.27-.07A7.25,7.25,0,0,1,10.59,16h0L10,15.71c-.22-.13-.45-.26-.67-.41l-.06,0-.44-.32-.19-.15-.28-.24-.3-.29a8.51,8.51,0,0,1-1.28-1.64l-.1-.17c-.1-.19-.2-.38-.29-.57l-.08-.17a8.23,8.23,0,0,1-.42-1.21c-.06-.22-.11-.44-.15-.67a6.17,6.17,0,0,1-.09-.62l0-.43c0-.14,0-.28,0-.43s0-.28,0-.43a2.25,2.25,0,0,0,0-.26h0a.94.94,0,0,1,0-.16s0-.11,0-.16,0-.31.08-.46.09-.45.15-.67A8.23,8.23,0,0,1,6.34,5l0-.09a.59.59,0,0,0,0-.08c.09-.19.19-.38.29-.57l.1-.17A8.68,8.68,0,0,1,8.23,2.31l.16-.15.28-.24.19-.15.44-.32.06-.05A9.22,9.22,0,0,1,10.55.74h0A8.3,8.3,0,0,1,11.8.29l.27-.06A9,9,0,0,1,13.37,0l.42,0h.44l.43,0A9.13,9.13,0,0,1,16,.23l.27.06a8.3,8.3,0,0,1,1.21.44h0a9.22,9.22,0,0,1,1.19.66l.06.05.44.32.19.15.28.24.16.15a8.18,8.18,0,0,1,1.42,1.78l.1.17c.1.19.2.38.29.57l.08.17a8.23,8.23,0,0,1,.42,1.21c.06.22.11.44.15.67a6.17,6.17,0,0,1,.09.62c0,.07,0,.13,0,.2s0,.15,0,.22S22.38,8.21,22.38,8.35Z"/><path class="cls-1" d="M5.67,7.66Zm-.16-.08h0a.4.4,0,0,0,.13.07l0,0Z"/><path class="cls-1" d="M5.51,7.58l.13.06-.1,0Z"/><polygon class="cls-1" points="5.67 7.66 5.67 7.66 5.67 7.66 5.67 7.66 5.67 7.66"/><path class="cls-1" d="M27.93,24.22v8.65c0,.17-.07.13-.24.13H.34C.17,33,0,33,0,32.87V24.22c0-.14,0-.28,0-.42a8.36,8.36,0,0,1,2.22-5.33l.11-.12A8.17,8.17,0,0,1,4.57,16.7l.16-.07a7.33,7.33,0,0,1,.7-.29l.16-.05.66-.19a10,10,0,0,0,.85.74A11.19,11.19,0,0,0,9.54,18.3c.16.08.33.14.49.21a10.7,10.7,0,0,0,2,.55,10.34,10.34,0,0,0,2,.19A10.77,10.77,0,0,0,16.28,19c.1,0,1.41-.33,1.77-.47.14-.06.28-.18.41-.24a5.56,5.56,0,0,0,1.93-1.16h0a.36.36,0,0,0,.2-.09,11.38,11.38,0,0,0,1.14-.94,8.23,8.23,0,0,1,6.19,7.71C27.93,23.93,27.93,24.08,27.93,24.22Z"/><path class="cls-1" d="M9.54,18.3A11.19,11.19,0,0,1,7.1,16.84,11.19,11.19,0,0,0,9.54,18.3c.16.08.33.14.49.21a10.7,10.7,0,0,0,2,.55"/></g></g></svg>