<svg xmlns="http://www.w3.org/2000/svg" viewBox="0 0 12.79 15.14"><defs><style>.cls-1{fill:#4d4d4d;}</style></defs><title>userbody</title><g id="Слой_2" data-name="Слой 2"><g id="Layer_1" data-name="Layer 1"><path class="cls-1" d="M10.25,3.83a1.34,1.34,0,0,1,0,.2c0,.07,0,.13,0,.19s0,.2,0,.29,0,.21-.07.31a3.62,3.62,0,0,1-.2.55l0,.08-.13.26,0,.08a4.26,4.26,0,0,1-.65.82L9,6.67l-.13.12-.09.07L8.57,7l0,0a2.61,2.61,0,0,1-.28.17L8,7.32H8a3.38,3.38,0,0,1-.56.2l-.12,0a2.9,2.9,0,0,1-.59.09H6.12a2.9,2.9,0,0,1-.59-.09l-.13,0a3.62,3.62,0,0,1-.55-.2h0l-.24-.11L4.29,7l0,0-.2-.14L4,6.79l-.13-.12L3.7,6.54a3.85,3.85,0,0,1-.58-.75l-.05-.08-.13-.26a.3.3,0,0,0,0-.08,5.1,5.1,0,0,1-.19-.55c0-.1,0-.21-.07-.31a2.54,2.54,0,0,1,0-.29,1.15,1.15,0,0,1,0-.19,1.34,1.34,0,0,1,0-.2V3.52h0s0,0,0-.07,0,0,0-.07a1.66,1.66,0,0,1,0-.22c0-.1,0-.2.07-.3a3.69,3.69,0,0,1,.19-.56l0,0,0,0L3.07,2l.05-.07a4,4,0,0,1,.65-.82L3.84,1,4,.88,4.06.81l.2-.15,0,0a4.68,4.68,0,0,1,.54-.3h0A5.14,5.14,0,0,1,5.4.13l.13,0A5.58,5.58,0,0,1,6.12,0h.59A5.58,5.58,0,0,1,7.3.1l.12,0A4.61,4.61,0,0,1,8,.33H8a4.68,4.68,0,0,1,.54.3l0,0,.2.15.09.07L9,1l.07.07a4,4,0,0,1,.65.82l0,.07.13.27,0,.07a3.73,3.73,0,0,1,.2.56c0,.1.05.2.07.3s0,.19,0,.29a.28.28,0,0,0,0,.09v.11A1.21,1.21,0,0,1,10.25,3.83Z"/><path class="cls-1" d="M2.59,3.51h0Zm-.07,0h0l.06,0h0Z"/><path class="cls-1" d="M2.52,3.48l.06,0-.05,0Z"/><polygon class="cls-1" points="2.6 3.52 2.6 3.52 2.6 3.52 2.59 3.51 2.6 3.52"/><path class="cls-1" d="M12.79,11.11v4c0,.08,0,.06-.11.06H.15c-.07,0-.15,0-.15-.06V10.92A3.94,3.94,0,0,1,1,8.47l.05-.05a3.77,3.77,0,0,1,1-.76l.07,0,.33-.13.07,0,.3-.08a4.32,4.32,0,0,0,.39.34,5.28,5.28,0,0,0,1.12.67l.22.09a6.1,6.1,0,0,0,.9.26,5.72,5.72,0,0,0,.92.08,5.1,5.1,0,0,0,1-.12s.65-.16.81-.22.13-.08.19-.11a2.53,2.53,0,0,0,.88-.53h0a.18.18,0,0,0,.1,0c.18-.14.35-.27.52-.43a3.76,3.76,0,0,1,2.83,3.53A1.41,1.41,0,0,1,12.79,11.11Z"/><path class="cls-1" d="M4.37,8.4a5.28,5.28,0,0,1-1.12-.67,5.28,5.28,0,0,0,1.12.67l.22.09a6.1,6.1,0,0,0,.9.26"/></g></g></svg>