<svg xmlns="http://www.w3.org/2000/svg" viewBox="0 0 23 26"><defs><style>.cls-1{fill:#4d4d4d;}</style></defs><title>briefcase2</title><g id="Слой_2" data-name="Слой 2"><g id="Layer_1" data-name="Layer 1"><path class="cls-1" d="M20,14v1H18V14H6v1H4V14H0v8.83C0,24.58,1.06,26,2.37,26H20.63C21.94,26,23,24.58,23,22.83V14Z"/><path class="cls-1" d="M20.69,4H16V1c0-.57-.33-1-.74-1H7.74C7.33,0,7,.46,7,1V4H2.38C1.07,4,0,5.49,0,7.33V12H4V11H6v1H18V11h2v1h3V7.74C23,5.93,20.69,4,20.69,4ZM15,4H9V2h6Z"/></g></g></svg>