<svg xmlns="http://www.w3.org/2000/svg" viewBox="0 0 27.95 26.26"><defs><style>.cls-1,.cls-3{fill:#4d4d4d;}.cls-2{fill:#f2f2f2;}.cls-3{stroke:#f2f2f2;stroke-miterlimit:10;stroke-width:0.25px;}</style></defs><title>target2</title><g id="Слой_2" data-name="Слой 2"><g id="Layer_1" data-name="Layer 1"><path class="cls-1" d="M23.54,14.49A11.77,11.77,0,1,1,11.77,2.72,11.77,11.77,0,0,1,23.54,14.49Z"/><circle class="cls-2" cx="11.77" cy="14.49" r="8.27" transform="translate(-0.59 0.5) rotate(-2.38)"/><circle class="cls-1" cx="11.77" cy="14.49" r="5.84" transform="translate(-3.61 25.08) rotate(-85.45)"/><path class="cls-2" d="M14.55,14.49a2.78,2.78,0,1,1-2.78-2.78A2.78,2.78,0,0,1,14.55,14.49Z"/><path class="cls-3" d="M27.62,3.68,25.9,3a.8.8,0,0,0-.19-.53.87.87,0,0,0-.36-.25L25.08.38c0-.25-.23-.33-.44-.17L21.23,2.88a1,1,0,0,0-.35.76l.1,2-9,8.19c-.34.3-.72.42-.42.77s.47,0,.82-.31l9.38-7.53,1.67.51a1,1,0,0,0,.81-.16l3.48-3C27.89,4,27.86,3.77,27.62,3.68Z"/></g></g></svg>