<?xml version="1.0" encoding="UTF-8"?>
<!DOCTYPE svg PUBLIC "-//W3C//DTD SVG 1.1//EN" "http://www.w3.org/Graphics/SVG/1.1/DTD/svg11.dtd">
<!-- Creator: CorelDRAW 2018 -->
<svg xmlns="http://www.w3.org/2000/svg" xml:space="preserve" width="1492px" height="1525px" version="1.1" style="shape-rendering:geometricPrecision; text-rendering:geometricPrecision; image-rendering:optimizeQuality; fill-rule:evenodd; clip-rule:evenodd"
viewBox="0 0 1422.35 1454.6"
 xmlns:xlink="http://www.w3.org/1999/xlink">
 <defs>
  <style type="text/css">
   <![CDATA[
    .fil0 {fill:white}
   ]]>
  </style>
 </defs>
 <g id="Слой_x0020_1">
  <metadata id="CorelCorpID_0Corel-Layer"/>
  <g id="_965723376">
   <g>
    <g>
     <path class="fil0" d="M513.85 802.49c0,-18.22 -14.78,-32.98 -33.02,-32.98l-115.21 0c-18.22,0 -33,14.76 -33,32.98l0 115.2c0,18.25 14.78,33.01 33,33.01l115.21 0c18.24,0 33.02,-14.76 33.02,-33.01l0 -115.2 0 0z"/>
     <path class="fil0" d="M801.78 802.49c0,-18.22 -14.78,-32.98 -32.98,-32.98l-115.23 0c-18.22,0 -33,14.76 -33,32.98l0 115.2c0,18.25 14.78,33.01 33,33.01l115.23 0c18.2,0 32.98,-14.76 32.98,-33.01l0 -115.2z"/>
     <path class="fil0" d="M1089.73 802.49c0,-18.22 -14.78,-32.98 -33,-32.98l-115.21 0c-18.24,0 -33.02,14.76 -33.02,32.98l0 115.2c0,18.25 14.78,33.01 33.02,33.01l115.21 0c18.22,0 33,-14.76 33,-33.01l0 -115.2z"/>
     <path class="fil0" d="M513.85 1090.46c0,-18.25 -14.78,-33 -33.02,-33l-115.21 0c-18.22,0 -33,14.75 -33,33l0 115.18c0,18.23 14.78,32.99 33,32.99l115.21 0c18.24,0 33.02,-14.76 33.02,-32.99l0 -115.18 0 0z"/>
     <path class="fil0" d="M801.78 1090.46c0,-18.25 -14.78,-33 -32.98,-33l-115.23 0c-18.22,0 -33,14.75 -33,33l0 115.18c0,18.23 14.78,32.99 33,32.99l115.23 0c18.2,0 32.98,-14.76 32.98,-32.99l0 -115.18z"/>
     <path class="fil0" d="M1089.73 1090.46c0,-18.25 -14.78,-33 -32.98,-33l-115.23 0c-18.24,0 -33.02,14.75 -33.02,33l0 115.18c0,18.23 14.78,32.99 33.02,32.99l115.23 0c18.2,0 32.98,-14.76 32.98,-32.99l0 -115.18 0 0z"/>
     <path class="fil0" d="M1295.75 161.96l0 175.96c0,79.53 -64.52,143.62 -144.04,143.62l-90.86 0c-79.53,0 -144.9,-64.09 -144.9,-143.62l0 -176.59 -409.55 0 0 176.59c0,79.53 -65.37,143.62 -144.88,143.62l-90.88 0c-79.52,0 -144.03,-64.09 -144.03,-143.62l0 -175.96c-69.5,2.1 -126.61,59.61 -126.61,130.29l0 1031.19c0,72.02 58.37,131.16 130.38,131.16l1161.59 0c71.9,0 130.38,-59.27 130.38,-131.16l0 -1031.19c0,-70.68 -57.11,-128.19 -126.6,-130.29zm-42.21 1097.27c0,31.12 -25.23,56.37 -56.36,56.37l-974.49 0c-31.13,0 -56.37,-25.25 -56.37,-56.37l0 -532.65c0,-31.13 25.23,-56.38 56.37,-56.38l974.48 0c31.14,0 56.37,25.25 56.37,56.38l0 532.65 0 0z"/>
     <path class="fil0" d="M270.32 387.21l89.88 0c27.28,0 49.4,-22.09 49.4,-49.37l-0.01 -288.46c0,-27.28 -22.11,-49.38 -49.39,-49.38l-89.88 0c-27.28,0 -49.4,22.1 -49.4,49.38l0 288.46c0,27.28 22.12,49.37 49.4,49.37z"/>
     <path class="fil0" d="M1059.69 387.21l89.88 0c27.26,0 49.38,-22.09 49.38,-49.37l0 -288.46c0,-27.28 -22.12,-49.38 -49.38,-49.38l-89.88 0c-27.28,0 -49.4,22.1 -49.4,49.38l0 288.46c0,27.28 22.12,49.37 49.4,49.37z"/>
    </g>
   </g>
   <g>
   </g>
   <g>
   </g>
   <g>
   </g>
   <g>
   </g>
   <g>
   </g>
   <g>
   </g>
   <g>
   </g>
   <g>
   </g>
   <g>
   </g>
   <g>
   </g>
   <g>
   </g>
   <g>
   </g>
   <g>
   </g>
   <g>
   </g>
   <g>
   </g>
  </g>
 </g>
</svg>
