<svg xmlns="http://www.w3.org/2000/svg" viewBox="0 0 17.14 14.48"><defs><style>.cls-1{fill:#4d4d4d;}</style></defs><title>chat</title><g id="Слой_2" data-name="Слой 2"><g id="Layer_1" data-name="Layer 1"><path class="cls-1" d="M11.89,9.14a1.81,1.81,0,0,0,1.82-1.82V1.82A1.82,1.82,0,0,0,11.89,0H1.82A1.83,1.83,0,0,0,0,1.82v5.5A1.82,1.82,0,0,0,1.82,9.14H3.14v1.91a.57.57,0,0,0,.36.53.52.52,0,0,0,.21,0,.58.58,0,0,0,.41-.17L6.43,9.14Z"/><path class="cls-1" d="M15.55,4.76h-.92V7.32a2.74,2.74,0,0,1-2.74,2.74H6.81L5.74,11.13A1.59,1.59,0,0,0,7.3,12.45h4.43l1.86,1.86a.58.58,0,0,0,.41.17.63.63,0,0,0,.22-.05.57.57,0,0,0,.35-.53V12.45h1a1.59,1.59,0,0,0,1.59-1.59V6.35a1.59,1.59,0,0,0-1.59-1.59Z"/></g></g></svg>