<svg xmlns="http://www.w3.org/2000/svg" viewBox="0 0 56.92 61.56"><defs><style>.cls-1{fill:#4d4d4d;}.cls-2,.cls-3{fill:#fff;}.cls-3{stroke:#fff;stroke-miterlimit:10;}</style></defs><title>cv</title><g id="Слой_2" data-name="Слой 2"><g id="Layer_1" data-name="Layer 1"><path class="cls-1" d="M53.24,4.06H34.55a2,2,0,0,0,0-.25c0-2.1-2.74-3.81-6.11-3.81s-6.11,1.71-6.11,3.81c0,.09,0,.17,0,.25H3.68c-2,0-3.68,1-3.68,2.3v52.9c0,1.27,1.65,2.3,3.68,2.3H53.24c2,0,3.68-1,3.68-2.3V6.36C56.92,5.09,55.27,4.06,53.24,4.06Z"/><rect class="cls-2" x="10.09" y="15.5" width="36.75" height="28.71"/><path class="cls-1" d="M40.23,37.31a2.63,2.63,0,0,0-1.63-1.8l-4.51-1.8H34l-1.88-1.23h0a1.07,1.07,0,0,0-.32-.53l0,0V30A12,12,0,0,0,33,28.11a2.38,2.38,0,0,0,1.23-1.85c0-1-.33-1.19-.66-1.19.08-.67.47-5.51-5.21-5.51-6.1,0-5.24,5.58-5.24,5.58h0c-.32,0-.66.25-.61,1.12a2.43,2.43,0,0,0,1.24,1.85A11.38,11.38,0,0,0,24.86,30v2a1,1,0,0,0-.3.51L22.69,33.7v.07l-4.37,1.74a2.62,2.62,0,0,0-1.64,1.8l-.77,3.4s.75,1.63,12.55,1.63S41,40.71,41,40.71Z"/><rect class="cls-3" x="9.99" y="50.57" width="36.94" height="1.12"/></g></g></svg>