<svg xmlns="http://www.w3.org/2000/svg" viewBox="0 0 18.62 22.3"><defs><style>.cls-1{fill:none;stroke:#fff;stroke-width:2px;}.cls-1,.cls-2{stroke-miterlimit:10;}.cls-2{fill:#fff;stroke:gray;stroke-width:0.75px;}</style></defs><title>edit</title><g id="Слой_2" data-name="Слой 2"><g id="Layer_1" data-name="Layer 1"><path class="cls-1" d="M11.22,4.32H2.11A1.08,1.08,0,0,0,1,5.36v14.9a1.08,1.08,0,0,0,1.11,1H13.26a1.08,1.08,0,0,0,1.11-1V7.54Z"/><path class="cls-2" d="M14.54,3l1.05,1.07L10,9.68a3.26,3.26,0,0,1-.4.34.74.74,0,0,1-1-1,1.09,1.09,0,0,1,.23-.29C10.66,6.86,14.48,3.05,14.54,3Z"/><path class="cls-2" d="M17.33,4.58,14.06,1.3a8.34,8.34,0,0,1,.83-.71,1.44,1.44,0,0,1,1.78.22c.35.31.68.65,1,1a1.59,1.59,0,0,1,.05,2.38C17.59,4.33,17.33,4.58,17.33,4.58Z"/><path class="cls-2" d="M13.48,1.91l.56.51c-.14.15-.25.25-.36.36L8.39,8.07c-.1.1-.25.28-.37.31a.4.4,0,0,1-.4-.09.48.48,0,0,1-.09-.37c0-.09.16-.22.24-.3l5.55-5.55Z"/><path class="cls-2" d="M16.12,4.55l.56.51-.36.37L11,10.71c-.1.1-.25.28-.37.31a.4.4,0,0,1-.4-.09.46.46,0,0,1-.09-.36c0-.1.16-.23.24-.31L16,4.71C16,4.67,16.12,4.55,16.12,4.55Z"/><path class="cls-2" d="M7,8.9a.86.86,0,0,1,.76.85c.07.63.54,1,1.32,1.13a.67.67,0,0,1,.5.39l.15.32-3.62.91Z"/></g></g></svg>