<?xml version="1.0" encoding="UTF-8"?>
<!DOCTYPE svg PUBLIC "-//W3C//DTD SVG 1.1//EN" "http://www.w3.org/Graphics/SVG/1.1/DTD/svg11.dtd">
<!-- Creator: CorelDRAW 2018 -->
<svg xmlns="http://www.w3.org/2000/svg" xml:space="preserve" width="400px" height="140px" version="1.1" style="shape-rendering:geometricPrecision; text-rendering:geometricPrecision; image-rendering:optimizeQuality; fill-rule:evenodd; clip-rule:evenodd"
viewBox="0 0 400 140.03"
 xmlns:xlink="http://www.w3.org/1999/xlink">
 <defs>
  <style type="text/css">
   <![CDATA[
    .fil0 {fill:#CECECE}
    .fil1 {fill:#F5B41B}
    .fil3 {fill:#9B9A98;fill-rule:nonzero}
    .fil2 {fill:#F5B41B;fill-rule:nonzero}
   ]]>
  </style>
 </defs>
 <g id="Слой_x0020_1">
  <metadata id="CorelCorpID_0Corel-Layer"/>
  <g id="_962903160">
   <path class="fil0" d="M46.78 103.59c0.37,0 0.73,0.03 1.09,0.07l12.28 -23.66 5.68 2.94 -12.23 23.56c1.63,1.7 2.63,4 2.63,6.54 0,5.22 -4.23,9.45 -9.45,9.45 -5.22,0 -9.45,-4.23 -9.45,-9.45 0,-5.22 4.23,-9.45 9.45,-9.45z"/>
   <path class="fil0" d="M11.89 57.02c6.5,0 11.78,5.21 11.9,11.69l27.13 3.4 -0.73 5.8 -27.76 -3.48c-1.98,3.79 -5.96,6.38 -10.54,6.38 -6.56,0 -11.89,-5.33 -11.89,-11.9 0,-6.57 5.33,-11.89 11.89,-11.89z"/>
   <path class="fil0" d="M62.39 0c8.04,0 14.56,6.52 14.56,14.56 0,6.54 -4.32,12.08 -10.26,13.91l0.12 34.96 -6.56 0.02 -0.11 -34.51c-6.97,-1.08 -12.31,-7.11 -12.31,-14.38 0,-8.04 6.52,-14.56 14.56,-14.56z"/>
   <path class="fil0" d="M110.32 37.64c6.49,0 11.76,5.27 11.76,11.76 0,6.5 -5.27,11.77 -11.76,11.77 -3.08,0 -5.88,-1.18 -7.97,-3.11l-28.23 18.26 -3.48 -5.37 28.35 -18.35c-0.29,-1.02 -0.44,-2.09 -0.44,-3.2 0,-6.49 5.27,-11.76 11.77,-11.76z"/>
   <path class="fil0" d="M108.6 111.02c8.01,0 14.5,6.49 14.5,14.5 0,8.02 -6.49,14.51 -14.5,14.51 -8.02,0 -14.51,-6.49 -14.51,-14.51 0,-3.13 0.99,-6.03 2.68,-8.4l-25.8 -27.76 4.82 -4.48 25.9 27.88c2.05,-1.11 4.41,-1.74 6.91,-1.74z"/>
   <circle class="fil1" cx="64.69" cy="78.02" r="17.89"/>
   <path class="fil2" d="M217.56 96.22l-9.12 -17.93c-0.2,-0.38 -0.38,-0.78 -0.54,-1.18 -0.16,-0.41 -0.31,-0.76 -0.43,-1.08 -0.13,-0.38 -0.24,-0.74 -0.34,-1.05l-0.11 0c0.02,0.38 0.05,0.77 0.07,1.16 0.03,0.35 0.05,0.74 0.06,1.18 0.01,0.44 0.02,0.9 0.02,1.39l0 17.51 -7.02 0 0 -36.17 7.09 0 8.18 15.72c0.22,0.45 0.42,0.87 0.6,1.26 0.17,0.38 0.32,0.74 0.45,1.05l0.37 1.05 0.08 0c-0.03,-0.38 -0.05,-0.77 -0.08,-1.15 -0.02,-0.36 -0.04,-0.73 -0.05,-1.13 -0.01,-0.41 -0.02,-0.84 -0.02,-1.29l0 -15.51 7.09 0 0 36.17 -6.3 0z"/>
   <polygon id="1" class="fil2" points="228.36,96.22 228.36,60.05 244.86,60.05 244.86,66.78 236.8,66.78 236.8,74.56 243.78,74.56 243.78,81.18 236.8,81.18 236.8,89.49 244.86,89.49 244.86,96.22 "/>
   <polygon id="2" class="fil2" points="260.88,66.78 260.88,96.22 252.44,96.22 252.44,66.78 247.23,66.78 247.23,60.05 266.13,60.05 266.13,66.78 "/>
   <polygon id="3" class="fil2" points="267.44,96.22 276.11,66.78 268.57,66.78 268.57,60.05 286.84,60.05 278.47,89.49 286.99,89.49 286.99,96.22 "/>
   <path id="4" class="fil2" d="M318.23 96.22l-7.43 0 -3.45 -16.4c-0.12,-0.5 -0.21,-0.95 -0.26,-1.37 -0.05,-0.42 -0.1,-0.83 -0.15,-1.21 -0.05,-0.39 -0.09,-0.79 -0.11,-1.21l-0.08 0c-0.02,0.42 -0.06,0.82 -0.11,1.21 -0.05,0.38 -0.11,0.79 -0.17,1.21 -0.06,0.42 -0.14,0.87 -0.24,1.37l-3.34 16.4 -7.43 0 -6.86 -36.17 8.4 0 2.66 19.03c0.08,0.52 0.14,1.02 0.17,1.5 0.04,0.47 0.08,0.9 0.13,1.29 0.05,0.42 0.09,0.84 0.12,1.26l0.03 0c0.03,-0.42 0.08,-0.84 0.15,-1.26 0.08,-0.74 0.22,-1.67 0.42,-2.79l3.52 -19.03 5.89 0 3.49 19.03c0.1,0.49 0.17,0.98 0.22,1.47 0.05,0.49 0.1,0.93 0.15,1.32 0.06,0.45 0.09,0.87 0.12,1.26l0.07 0c0,-0.39 0.03,-0.81 0.08,-1.26 0.05,-0.81 0.15,-1.74 0.3,-2.79l2.74 -19.03 7.84 0 -6.87 36.17z"/>
   <polygon id="5" class="fil2" points="327.87,96.22 327.87,60.05 344.37,60.05 344.37,66.78 336.31,66.78 336.31,74.56 343.29,74.56 343.29,81.18 336.31,81.18 336.31,89.49 344.37,89.49 344.37,96.22 "/>
   <path id="6" class="fil2" d="M362.72 96.22l-6.08 -15.72 -0.08 0 0 15.72 -8.36 0 0 -34.8c1.28,-0.67 2.76,-1.19 4.43,-1.58 1.68,-0.39 3.5,-0.58 5.45,-0.58 2.2,0 4.11,0.29 5.71,0.87 1.61,0.58 2.93,1.37 3.97,2.39 1.03,1.02 1.81,2.25 2.31,3.71 0.5,1.45 0.75,3.04 0.75,4.75 0,1.06 -0.15,2.06 -0.45,3.03 -0.31,0.96 -0.73,1.84 -1.28,2.62 -0.56,0.79 -1.2,1.48 -1.95,2.05 -0.74,0.58 -1.54,0.99 -2.39,1.24l0 0.11 7.39 16.19 -9.42 0zm-0.34 -24.71c0,-2.1 -0.3,-3.68 -0.9,-4.73 -0.6,-1.05 -1.71,-1.58 -3.34,-1.58 -0.35,0 -0.65,0.04 -0.9,0.11 -0.25,0.07 -0.48,0.15 -0.68,0.26l0 12.35c0.13,0.07 0.3,0.13 0.51,0.16 0.21,0.04 0.45,0.05 0.7,0.05 1.57,0 2.73,-0.61 3.48,-1.84 0.75,-1.22 1.13,-2.82 1.13,-4.78z"/>
   <polygon id="7" class="fil2" points="390.4,96.22 383.5,78.19 383.42,78.19 383.42,96.22 374.98,96.22 374.98,60.05 383.42,60.05 383.42,76.5 383.5,76.5 390.62,60.05 399.44,60.05 391.11,76.56 400,96.22 "/>
   <path class="fil3" d="M144.83 93.35c0,2.38 -0.31,4.46 -0.96,6.23 -0.64,1.77 -1.52,3.25 -2.66,4.44 -1.12,1.19 -2.47,2.1 -4.04,2.73 -1.57,0.63 -3.29,0.98 -5.16,1.05l0 -6.99c1.2,-0.14 2.23,-0.74 3.09,-1.81 0.86,-1.07 1.29,-2.59 1.29,-4.55l0 -34.43 8.44 0 0 33.33z"/>
   <path id="1" class="fil3" d="M171.2 81.99c0,2.21 -0.25,4.23 -0.75,6.05 -0.5,1.82 -1.24,3.4 -2.21,4.73 -0.98,1.33 -2.17,2.36 -3.58,3.1 -1.42,0.74 -3.02,1.1 -4.82,1.1 -1.8,0 -3.41,-0.36 -4.82,-1.1 -1.42,-0.74 -2.61,-1.77 -3.58,-3.1 -0.98,-1.33 -1.72,-2.91 -2.22,-4.73 -0.5,-1.82 -0.75,-3.84 -0.75,-6.05 0,-2.2 0.25,-4.22 0.75,-6.04 0.5,-1.82 1.24,-3.39 2.22,-4.71 0.97,-1.31 2.16,-2.34 3.58,-3.07 1.41,-0.74 3.02,-1.11 4.82,-1.11 1.8,0 3.4,0.37 4.82,1.11 1.41,0.73 2.6,1.76 3.58,3.07 0.97,1.32 1.71,2.89 2.21,4.71 0.5,1.82 0.75,3.84 0.75,6.04zm-8.25 -0.13c0,-1.19 -0.05,-2.31 -0.15,-3.34 -0.1,-1.05 -0.27,-1.95 -0.51,-2.72 -0.23,-0.77 -0.55,-1.38 -0.95,-1.8 -0.4,-0.42 -0.9,-0.63 -1.5,-0.63 -0.6,0 -1.1,0.21 -1.5,0.63 -0.4,0.42 -0.73,1.03 -0.98,1.8 -0.25,0.77 -0.42,1.67 -0.52,2.72 -0.1,1.03 -0.15,2.15 -0.15,3.34 0,1.23 0.05,2.36 0.15,3.37 0.1,1.03 0.27,1.91 0.52,2.64 0.25,0.74 0.58,1.32 0.98,1.74 0.4,0.43 0.9,0.64 1.5,0.64 0.6,0 1.1,-0.21 1.5,-0.64 0.4,-0.42 0.72,-1 0.95,-1.74 0.24,-0.73 0.41,-1.61 0.51,-2.64 0.1,-1.01 0.15,-2.14 0.15,-3.37z"/>
   <path id="2" class="fil3" d="M196.67 81.05c0,5.18 -1.11,9.13 -3.32,11.85 -2.21,2.72 -5.38,4.07 -9.51,4.07 -2.25,0 -4.14,-0.2 -5.68,-0.6 -1.54,-0.4 -2.73,-0.92 -3.58,-1.55l0 -39.9 8.1 0 -0.04 13.19c0.55,-0.25 1.17,-0.46 1.84,-0.65 0.68,-0.19 1.51,-0.29 2.51,-0.29 1.43,0 2.74,0.33 3.92,1 1.19,0.66 2.21,1.61 3.06,2.84 0.85,1.22 1.51,2.69 1.99,4.39 0.47,1.7 0.71,3.58 0.71,5.65zm-8.21 0.71c0,-1.31 -0.07,-2.5 -0.19,-3.59 -0.13,-1.09 -0.33,-2.03 -0.63,-2.82 -0.3,-0.79 -0.69,-1.4 -1.18,-1.82 -0.48,-0.42 -1.09,-0.63 -1.8,-0.63 -0.85,0 -1.5,0.14 -1.98,0.42l0 17.29c0.43,0.25 0.99,0.37 1.71,0.37 1.35,0 2.36,-0.8 3.04,-2.43 0.68,-1.61 1.03,-3.88 1.03,-6.79z"/>
  </g>
 </g>
</svg>
