<svg xmlns="http://www.w3.org/2000/svg" viewBox="0 0 26.86 26.15"><defs><style>.cls-1{fill:#4d4d4d;}</style></defs><title>mediator2</title><g id="Слой_2" data-name="Слой 2"><g id="Layer_1" data-name="Layer 1"><path class="cls-1" d="M16.57,3v.15c0,.05,0,.1,0,.15l0,.23-.06.23a3.26,3.26,0,0,1-.15.44l0,.06a1.24,1.24,0,0,1-.1.2l0,.06a3.15,3.15,0,0,1-.5.64l-.06,0-.1.09-.07.06-.16.11,0,0L15,5.62l-.21.1h0a3.12,3.12,0,0,1-.43.15l-.1,0a3.4,3.4,0,0,1-.46.07h-.46a3.54,3.54,0,0,1-.47-.07l-.09,0a3.26,3.26,0,0,1-.44-.15h0l-.18-.09a1.38,1.38,0,0,1-.24-.14l0,0-.15-.11-.07-.06-.1-.09-.11-.1A2.67,2.67,0,0,1,11,4.52l0-.06a1.28,1.28,0,0,1-.11-.2l0-.06a3.26,3.26,0,0,1-.15-.44,1.89,1.89,0,0,1,0-.23l0-.23a.76.76,0,0,1,0-.15.76.76,0,0,1,0-.15.78.78,0,0,1,0-.16s0-.06,0-.09h0V2.63s0-.11,0-.17,0-.15,0-.23a2.32,2.32,0,0,1,.16-.44V1.73a1.28,1.28,0,0,1,.11-.2l0-.06a2.87,2.87,0,0,1,.51-.64l.06,0,.1-.09.07-.06.15-.11,0,0a2.13,2.13,0,0,1,.42-.23h0a3.26,3.26,0,0,1,.44-.15l.09,0A3.54,3.54,0,0,1,13.35,0h.46a3.4,3.4,0,0,1,.46.07l.1,0a3.12,3.12,0,0,1,.43.15h0a2.22,2.22,0,0,1,.43.23l0,0,.16.11.07.06.1.09.06,0a3.15,3.15,0,0,1,.5.64l0,.06a1.24,1.24,0,0,1,.1.2l0,.06a3.26,3.26,0,0,1,.15.44l.06.23,0,.23v.07a.22.22,0,0,1,0,.08Z"/><path class="cls-1" d="M10.59,2.75Zm-.05,0h0l0,0h0Z"/><path class="cls-1" d="M10.54,2.72l0,0,0,0Z"/><polygon class="cls-1" points="10.59 2.75 10.59 2.75 10.59 2.75 10.59 2.75 10.59 2.75"/><path class="cls-1" d="M18.53,8.86V12c0,.06,0,.07-.06.07H8.69c-.07,0-.12,0-.12-.07V8.71A3.06,3.06,0,0,1,9.36,6.8l0,0a3.07,3.07,0,0,1,.8-.59l.06,0L10.51,6l.06,0L10.8,6l.3.26a4.38,4.38,0,0,0,.88.53l.18.07a3.31,3.31,0,0,0,.7.2,4.18,4.18,0,0,0,.72.07A3.72,3.72,0,0,0,14.39,7l.1,0h.15A1.12,1.12,0,0,0,15,6.82l.15-.08a4.11,4.11,0,0,0,.69-.42h0a.13.13,0,0,0,.07,0,3.21,3.21,0,0,0,.41-.34,2.93,2.93,0,0,1,2.2,2.76C18.54,8.75,18.53,8.81,18.53,8.86Z"/><path class="cls-1" d="M8,17.12v.16s0,.1,0,.15l0,.22c0,.08,0,.16-.05.24a3.29,3.29,0,0,1-.16.44l0,.06-.11.2,0,.06a3.19,3.19,0,0,1-.51.64L7,19.34l-.1.09-.07.06-.15.11,0,0-.22.13-.2.1h0a3.12,3.12,0,0,1-.43.15l-.1,0a3.4,3.4,0,0,1-.46.07H4.8A3.4,3.4,0,0,1,4.34,20l-.1,0a2.72,2.72,0,0,1-.43-.15h0l-.18-.09a1.38,1.38,0,0,1-.24-.14l0,0-.15-.11-.07-.06L3,19.34l-.11-.1a3,3,0,0,1-.46-.59l0-.06-.11-.2,0-.06a2.32,2.32,0,0,1-.16-.44c0-.08,0-.16,0-.24l0-.22a.76.76,0,0,1,0-.15c0-.05,0-.1,0-.16A.76.76,0,0,1,2,17v-.09H2s0,0,0-.06a.13.13,0,0,1,0-.06,1,1,0,0,1,0-.17c0-.08,0-.16,0-.23a2.32,2.32,0,0,1,.16-.44v-.06c0-.07.07-.14.11-.2l0-.06A2.66,2.66,0,0,1,3,15L3,14.9l.1-.08.07-.06.15-.11,0,0a2.13,2.13,0,0,1,.42-.23h0a2.73,2.73,0,0,1,.43-.16l.1,0a2.32,2.32,0,0,1,.46-.07h.46a2.32,2.32,0,0,1,.46.07l.1,0a3.16,3.16,0,0,1,.43.16h0a2.13,2.13,0,0,1,.42.23l0,0,.15.11.07.06.1.08L7.1,15a2.93,2.93,0,0,1,.51.64l0,.06c0,.06.07.13.11.2l0,.06a3.29,3.29,0,0,1,.16.44c0,.07,0,.15.05.23l0,.23a.2.2,0,0,0,0,.07v.23Z"/><path class="cls-1" d="M2,16.87H2Zm-.05,0H2a.05.05,0,0,0,0,0H2Z"/><path class="cls-1" d="M2,16.85l0,0,0,0Z"/><polygon class="cls-1" points="2.05 16.88 2.05 16.88 2.05 16.88 2.04 16.87 2.05 16.88"/><path class="cls-1" d="M10,23v3.1c0,.06-.06.06-.12.06H.14c-.06,0-.14,0-.14-.06V23s0-.1,0-.15a3.07,3.07,0,0,1,.8-1.91l0-.05a2.91,2.91,0,0,1,.8-.59l.06,0L2,20.16l.06,0,.23-.06a3.88,3.88,0,0,0,.31.26,4.31,4.31,0,0,0,.87.53l.18.07a4.29,4.29,0,0,0,.7.2,4.24,4.24,0,0,0,1.53,0l.1,0h.15A1.09,1.09,0,0,0,6.47,21s.1-.07.15-.09a3.44,3.44,0,0,0,.69-.42h0a.15.15,0,0,0,.07,0,4.62,4.62,0,0,0,.41-.34A3,3,0,0,1,10,22.83.88.88,0,0,1,10,23Z"/><path class="cls-1" d="M24.88,17.07v.16c0,.05,0,.1,0,.15a.83.83,0,0,1,0,.22,2,2,0,0,1,0,.24,3.26,3.26,0,0,1-.15.44l0,.06-.1.2a.21.21,0,0,0,0,.06,2.87,2.87,0,0,1-.51.64l-.05.05-.1.09-.07.05-.16.12h0l-.22.14-.21.1h0a3.26,3.26,0,0,1-.44.15l-.09,0a3.65,3.65,0,0,1-.46.07h-.47a3.65,3.65,0,0,1-.46-.07l-.09,0a3.26,3.26,0,0,1-.44-.15h0l-.19-.09c-.08-.05-.16-.09-.24-.15h0L20,19.43,20,19.38l-.11-.09-.1-.1a2.93,2.93,0,0,1-.46-.59l0-.06c0-.07-.07-.13-.1-.2l0-.06a3.26,3.26,0,0,1-.15-.44,2,2,0,0,1,0-.24.83.83,0,0,1,0-.22c0-.05,0-.1,0-.15v-.16c0-.05,0-.1,0-.15s0-.06,0-.1h0s0,0,0-.05,0,0,0-.06l0-.17L19,16.3a3.12,3.12,0,0,1,.15-.43v0l0,0,.1-.21,0-.06a2.82,2.82,0,0,1,.51-.63l.05-.06.11-.08.06-.06.16-.11,0,0a3.62,3.62,0,0,1,.43-.24h0a3.29,3.29,0,0,1,.44-.16l.09,0a2.44,2.44,0,0,1,.46-.07h.47a2.44,2.44,0,0,1,.46.07l.09,0a3.29,3.29,0,0,1,.44.16h0a3.62,3.62,0,0,1,.43.24l0,0,.16.11.07.06.1.08.05.05a3.12,3.12,0,0,1,.51.64l0,.06.1.21,0,.06a3.12,3.12,0,0,1,.15.43,2,2,0,0,1,0,.24.91.91,0,0,1,0,.23.15.15,0,0,1,0,.07s0,.05,0,.08Z"/><path class="cls-1" d="M18.9,16.82Zm0,0h0l0,0h0Z"/><path class="cls-1" d="M18.85,16.8l0,0,0,0Z"/><polygon class="cls-1" points="18.9 16.82 18.9 16.82 18.9 16.82 18.9 16.82 18.9 16.82"/><path class="cls-1" d="M26.85,22.93V26c0,.06,0,.11-.07.11H17c-.06,0-.09,0-.09-.11V22.93a.71.71,0,0,1,0-.14,3,3,0,0,1,.79-1.92l0,0a2.91,2.91,0,0,1,.8-.59l0,0,.26-.11.05,0a2.1,2.1,0,0,1,.24-.06,3.94,3.94,0,0,0,1.18.78l.17.08a4.41,4.41,0,0,0,.71.2,4.17,4.17,0,0,0,.71.06,3.75,3.75,0,0,0,.82-.1s.06,0,.1,0H23a1.14,1.14,0,0,0,.38-.13l.15-.05a3.93,3.93,0,0,0,.69-.39h0s0,0,.07-.06a4.47,4.47,0,0,0,.41-.35,3,3,0,0,1,2.21,2.76C26.86,22.84,26.85,22.88,26.85,22.93Z"/><rect class="cls-1" x="12.84" y="12.77" width="1.18" height="5.15" rx="0.31"/><rect class="cls-1" x="14.39" y="15.99" width="1.18" height="5.15" rx="0.31" transform="translate(-8.87 18.71) rotate(-51.46)"/><rect class="cls-1" x="11.07" y="15.99" width="1.18" height="5.15" rx="0.31" transform="translate(18.91 -2.12) rotate(51.46)"/></g></g></svg>