<svg xmlns="http://www.w3.org/2000/svg" viewBox="0 0 13.87 20.48"><defs><style>.cls-1{fill:#565d63;}</style></defs><title>pin</title><g id="Слой_2" data-name="Слой 2"><g id="Layer_1" data-name="Layer 1"><polygon class="cls-1" points="7.96 10.56 7.2 10.56 6.67 10.56 5.91 10.56 5.87 17.35 6.97 20.48 8 17.35 7.96 10.56"/><polygon class="cls-1" points="10.77 8.76 3.1 8.76 3.67 3.98 3.74 3.44 9.89 3.44 9.98 3.98 10.77 8.76"/><path class="cls-1" d="M13.87,10.56H0C0,9.28,1.38,8.25,3.08,8.25h7.71C12.49,8.25,13.87,9.28,13.87,10.56Z"/><path class="cls-1" d="M12.33,1.81a2,2,0,0,1-2,1.81H3.44a2,2,0,0,1-2-1.81h0A2,2,0,0,1,3.44,0h6.88a2,2,0,0,1,2,1.81Z"/></g></g></svg>